<?xml version="1.0" encoding="UTF-8"?>
<!DOCTYPE svg PUBLIC "-//W3C//DTD SVG 1.1//EN" "http://www.w3.org/Graphics/SVG/1.1/DTD/svg11.dtd">
<!-- Creator: CorelDRAW -->
<svg xmlns="http://www.w3.org/2000/svg" xml:space="preserve" width="2048px" height="2048px" style="shape-rendering:geometricPrecision; text-rendering:geometricPrecision; image-rendering:optimizeQuality; fill-rule:evenodd; clip-rule:evenodd"
viewBox="0 0 2048 2048"
 xmlns:xlink="http://www.w3.org/1999/xlink">
 <defs>
  <style type="text/css">
   <![CDATA[
    .fil2 {fill:none}
    .fil8 {fill:#424242}
    .fil5 {fill:#434A52}
    .fil7 {fill:#8A8A8A}
    .fil1 {fill:#8E24AA}
    .fil3 {fill:#999999}
    .fil4 {fill:#B8B4B4}
    .fil0 {fill:#BA68C8}
    .fil6 {fill:#BBDEFB}
   ]]>
  </style>
   <clipPath id="id0">
    <path d="M1024 0c565.541,0 1024,458.459 1024,1024 0,565.541 -458.459,1024 -1024,1024 -565.541,0 -1024,-458.459 -1024,-1024 0,-565.541 458.459,-1024 1024,-1024z"/>
   </clipPath>
 </defs>
 <g id="Layer_x0020_1">
  <metadata id="CorelCorpID_0Corel-Layer"/>
  <path class="fil0" d="M1024 0c565.541,0 1024,458.459 1024,1024 0,565.541 -458.459,1024 -1024,1024 -565.541,0 -1024,-458.459 -1024,-1024 0,-565.541 458.459,-1024 1024,-1024z"/>
  <g style="clip-path:url(#id0)">
   <g id="_308713696">
    <g>
     <polygon id="_3039017121" class="fil1" points="1477.48,605.652 2613.36,1741.53 2614.65,1743.09 2615.81,1744.78 2616.81,1746.58 2617.66,1748.5 2618.34,1750.5 2618.83,1752.6 2619.14,1754.76 2619.24,1756.99 2619.24,2250.33 2619.14,2252.56 2618.83,2254.72 2618.33,2256.82 2617.66,2258.83 2616.81,2260.74 2615.8,2262.54 2614.65,2264.23 2613.35,2265.79 2611.93,2267.2 2610.38,2268.47 2608.73,2269.57 2606.98,2270.5 2605.15,2271.23 2603.23,2271.78 2601.25,2272.11 2599.21,2272.22 1463.33,1136.34 1465.37,1136.23 1467.35,1135.89 1469.27,1135.35 1471.1,1134.61 1472.85,1133.69 1474.5,1132.59 1476.05,1131.32 1477.47,1129.91 1478.77,1128.35 1479.92,1126.66 1480.93,1124.86 1481.78,1122.94 1482.45,1120.94 1482.95,1118.84 1483.26,1116.68 1483.36,1114.45 1483.36,621.109 1483.26,618.882 1482.95,616.715 1482.45,614.623 1481.78,612.615 1480.93,610.702 1479.93,608.897 1478.77,607.21 "/>
     <polygon id="_303902240" class="fil1" points="1474.71,1141.65 2610.59,2277.53 2611.8,2279 2612.93,2280.59 2613.99,2282.3 2614.98,2284.11 2615.91,2286 2616.8,2287.96 2617.65,2289.98 2618.46,2292.04 2619.24,2294.12 1483.36,1158.23 1482.58,1156.15 1481.76,1154.1 1480.92,1152.08 1480.03,1150.12 1479.1,1148.22 1478.11,1146.42 1477.05,1144.71 1475.92,1143.11 "/>
     <polygon id="_303902648" class="fil1" points="1483.36,1158.23 2619.24,2294.12 2719.1,2562.77 1583.22,1426.89 "/>
     <polygon id="_303902960" class="fil1" points="584.67,1136.34 1720.55,2272.22 1718.51,2272.11 1716.53,2271.78 1714.62,2271.24 1712.78,2270.5 1711.03,2269.57 1709.38,2268.47 1707.84,2267.21 571.954,1131.33 573.497,1132.59 575.149,1133.69 576.898,1134.61 578.736,1135.35 580.65,1135.9 582.631,1136.23 "/>
     <polygon id="_303902984" class="fil1" points="1583.22,1426.89 2719.1,2562.77 2719.68,2564.85 2719.88,2566.91 2719.73,2568.93 2719.27,2570.89 2718.51,2572.78 2717.49,2574.59 2716.23,2576.3 2714.77,2577.89 2713.13,2579.36 2711.34,2580.67 2709.43,2581.83 2707.43,2582.81 2705.37,2583.6 2703.27,2584.18 2701.16,2584.54 2699.07,2584.67 1620.69,2584.67 1618.61,2584.54 1616.5,2584.18 1614.4,2583.6 1612.33,2582.81 1610.33,2581.84 1608.42,2580.68 1606.63,2579.36 470.751,1443.48 472.539,1444.8 474.449,1445.95 476.451,1446.93 478.517,1447.72 480.618,1448.3 482.726,1448.66 484.812,1448.78 1563.19,1448.78 1565.28,1448.66 1567.38,1448.3 1569.48,1447.72 1571.55,1446.93 1573.55,1445.95 1575.46,1444.79 1577.25,1443.47 1578.89,1442.01 1580.35,1440.42 1581.6,1438.71 1582.63,1436.9 1583.38,1435.01 1583.85,1433.04 1584,1431.03 1583.8,1428.97 "/>
    </g>
    <path id="_308713792" class="fil1" d="M1483.36 621.109l0 493.34c0,12.0284 -9.02599,21.8929 -20.0268,21.8929 10.9925,0 15.8929,10.7622 20.0303,21.8929l99.8587 268.656c4.13386,11.1272 -9.01418,21.8929 -20.0303,21.8929l-1078.38 0c-11.0173,0 -24.176,-10.7374 -20.0303,-21.8929l99.8611 -268.656c4.14685,-11.1555 9.0378,-21.8929 20.0268,-21.8929 -11.0032,0 -20.0291,-9.85158 -20.0291,-21.8929l0 -493.34c0,-12.0413 9.013,-21.8929 20.0291,-21.8929l878.661 0c11.0162,0 20.0291,9.86576 20.0291,21.8929z"/>
   </g>
  </g>
  <path class="fil2" d="M1024 0c565.541,0 1024,458.459 1024,1024 0,565.541 -458.459,1024 -1024,1024 -565.541,0 -1024,-458.459 -1024,-1024 0,-565.541 458.459,-1024 1024,-1024z"/>
  <path class="fil3" d="M484.811 1448.78l1078.38 0c11.0162,0 24.1654,-10.7646 20.0291,-21.8929l-99.8587 -268.656c-4.13622,-11.1307 -9.03662,-21.8929 -20.0291,-21.8929l-878.659 0c-10.9925,0 -15.8835,10.7374 -20.0291,21.8929l-99.8623 268.656c-4.14567,11.1555 9.013,21.8929 20.0291,21.8929z"/>
  <polygon class="fil4" points="514.106,1356.04 1533.9,1356.04 1447.46,1156.31 600.548,1156.31 "/>
  <path class="fil5" d="M584.67 599.216l878.661 0c11.0162,0 20.0291,9.86576 20.0291,21.8929l0 493.34c0,12.0284 -9.02599,21.8929 -20.0291,21.8929l-878.661 0c-11.0032,0 -20.0291,-9.85158 -20.0291,-21.8929l0 -493.34c0,-12.0413 9.013,-21.8929 20.0291,-21.8929z"/>
  <polygon class="fil6" points="604.584,639.16 604.584,1096.4 1443.42,1096.4 1443.42,639.16 "/>
  <rect class="fil7" transform="matrix(0.624129 -0 -0.158122 0.62413 611.549 1169.32)" width="63.9993" height="63.9993"/>
  <rect class="fil7" transform="matrix(0.624129 -0 -0.112264 0.62413 672.2 1169.32)" width="63.9993" height="63.9993"/>
  <rect class="fil7" transform="matrix(0.624129 -0 -0.112264 0.62413 732.852 1169.32)" width="63.9993" height="63.9993"/>
  <rect class="fil7" transform="matrix(0.624129 -0 -0.112264 0.62413 793.503 1169.32)" width="63.9993" height="63.9993"/>
  <rect class="fil7" x="846.969" y="1169.32" width="39.9438" height="39.9438"/>
  <rect class="fil7" x="900.436" y="1169.32" width="39.9438" height="39.9438"/>
  <rect class="fil7" x="953.903" y="1169.32" width="39.9438" height="39.9438"/>
  <rect class="fil7" x="1007.37" y="1169.32" width="39.9438" height="39.9438"/>
  <rect class="fil7" x="1060.84" y="1169.32" width="39.9438" height="39.9438"/>
  <rect class="fil7" x="1114.3" y="1169.32" width="39.9438" height="39.9438"/>
  <rect class="fil7" x="1167.77" y="1169.32" width="39.9438" height="39.9438"/>
  <rect class="fil7" x="1221.23" y="1169.32" width="39.9438" height="39.9438"/>
  <rect class="fil7" transform="matrix(0.624129 -0 0.110106 0.62413 1335.21 1169.32)" width="63.9993" height="63.9993"/>
  <rect class="fil7" transform="matrix(-0.624129 -0 0.158122 0.62413 1435.67 1169.32)" width="63.9993" height="63.9993"/>
  <rect class="fil7" transform="matrix(0.624129 -0 0.110106 0.62413 1274.7 1169.32)" width="63.9993" height="63.9993"/>
  <rect class="fil7" transform="matrix(0.624129 -0 -0.158122 0.62413 611.549 1236.2)" width="63.9993" height="63.9993"/>
  <rect class="fil7" transform="matrix(0.624129 -0 -0.112264 0.62413 672.2 1236.2)" width="63.9993" height="63.9993"/>
  <rect class="fil7" transform="matrix(0.624129 -0 -0.112264 0.62413 732.852 1236.2)" width="63.9993" height="63.9993"/>
  <rect class="fil7" transform="matrix(0.624129 -0 -0.112264 0.62413 793.503 1236.2)" width="63.9993" height="63.9993"/>
  <rect class="fil7" x="846.969" y="1236.2" width="39.9438" height="39.9438"/>
  <rect class="fil7" x="900.436" y="1236.2" width="39.9438" height="39.9438"/>
  <rect class="fil7" x="953.903" y="1236.2" width="39.9438" height="39.9438"/>
  <rect class="fil7" x="1007.37" y="1236.2" width="39.9438" height="39.9438"/>
  <rect class="fil7" x="1060.84" y="1236.2" width="39.9438" height="39.9438"/>
  <rect class="fil7" x="1114.3" y="1236.2" width="39.9438" height="39.9438"/>
  <rect class="fil7" x="1167.77" y="1236.2" width="39.9438" height="39.9438"/>
  <rect class="fil7" x="1221.23" y="1236.2" width="39.9438" height="39.9438"/>
  <rect class="fil7" transform="matrix(0.624129 -0 0.110106 0.62413 1335.21 1236.2)" width="63.9993" height="63.9993"/>
  <rect class="fil7" transform="matrix(-0.624129 -0 0.158122 0.62413 1435.67 1236.2)" width="63.9993" height="63.9993"/>
  <rect class="fil7" transform="matrix(0.624129 -0 0.110106 0.62413 1274.7 1236.2)" width="63.9993" height="63.9993"/>
  <rect class="fil7" transform="matrix(0.624129 -0 -0.158122 0.62413 611.549 1303.08)" width="63.9993" height="63.9993"/>
  <rect class="fil7" transform="matrix(0.624129 -0 -0.112264 0.62413 672.2 1303.08)" width="63.9993" height="63.9993"/>
  <rect class="fil7" transform="matrix(0.624129 -0 -0.112264 0.62413 732.852 1303.08)" width="63.9993" height="63.9993"/>
  <polygon class="fil7" points="1061.48,1303.08 1203.46,1303.08 1254.53,1303.08 1261.47,1343.03 1203.46,1343.03 1061.48,1343.03 786.53,1343.03 793.794,1303.08 "/>
  <rect class="fil7" transform="matrix(0.624129 -0 0.110106 0.62413 1335.21 1303.08)" width="63.9993" height="63.9993"/>
  <rect class="fil7" transform="matrix(-0.624129 -0 0.158122 0.62413 1435.67 1303.08)" width="63.9993" height="63.9993"/>
  <rect class="fil7" transform="matrix(0.624129 -0 0.110106 0.62413 1274.7 1303.08)" width="63.9993" height="63.9993"/>
  <path class="fil8" d="M1304.54 702.918c-1.38662,0 -2.63268,0.447638 -3.72638,1.3311 -1.0937,0.896457 -1.94764,2.49449 -2.55,4.79174 -0.785434,2.98583 -1.19055,8.00197 -1.19055,15.0638 0,7.06182 0.36378,11.9102 1.06417,14.5441 0.715749,2.64921 1.61102,4.40079 2.69055,5.28307 1.09252,0.868111 2.32559,1.31693 3.71221,1.31693 1.40197,0 2.64921,-0.448819 3.74174,-1.34528 1.0937,-0.883465 1.94646,-2.48032 2.55118,-4.77756 1.61575,-6.09567 1.73032,-23.5146 0.125197,-29.5807 -0.713386,-2.63386 -1.61102,-4.39961 -2.69055,-5.29607 -1.09252,-0.883465 -2.32559,-1.3311 -3.72756,-1.3311zm0 -9.5693c5.8441,0 10.3973,2.08701 13.6772,6.24922 3.90827,4.91811 5.87126,13.0866 5.87126,24.5067 0,11.3776 -1.97717,19.5603 -5.91378,24.5492 -3.2504,4.10551 -7.79056,6.15119 -13.6347,6.15119 -5.84292,0 -10.565,-2.24173 -14.152,-6.75355 -3.58701,-4.49764 -5.38111,-12.5268 -5.38111,-24.0732 0,-11.3362 1.97717,-19.4917 5.91378,-24.4654 3.25158,-4.10551 7.79056,-6.16418 13.6193,-6.16418zm-36.7382 60.4335l-11.5311 0 0 -43.48c-4.2189,3.95197 -9.17953,6.86575 -14.8973,8.74371l0 -10.4669c3,-0.981497 6.27874,-2.84528 9.80906,-5.59134 3.53268,-2.76024 5.95512,-5.9693 7.25906,-9.63898l9.36024 0 0 60.4335zm-56.7768 -50.8642c-1.3878,0 -2.63386,0.447638 -3.72756,1.3311 -1.09252,0.896457 -1.94764,2.49449 -2.55,4.79174 -0.785434,2.98583 -1.19055,8.00197 -1.19055,15.0638 0,7.06182 0.364961,11.9102 1.06417,14.5441 0.714567,2.64921 1.61221,4.40079 2.69055,5.28307 1.0937,0.868111 2.32559,1.31693 3.71339,1.31693 1.40079,0 2.64803,-0.448819 3.74055,-1.34528 1.09252,-0.883465 1.94764,-2.48032 2.55118,-4.77756 0.783071,-2.95748 1.19055,-7.95945 1.19055,-15.0213 0,-7.06182 -0.36378,-11.9102 -1.06536,-14.5595 -0.714567,-2.63386 -1.60984,-4.39961 -2.68937,-5.29607 -1.0937,-0.883465 -2.32677,-1.3311 -3.72756,-1.3311zm0 -9.5693c5.84292,0 10.3973,2.08701 13.6748,6.24922 3.90945,4.91811 5.87126,13.0866 5.87126,24.5067 0,11.3776 -1.9748,19.5603 -5.9126,24.5492 -3.2504,4.10551 -7.79056,6.15119 -13.6335,6.15119 -5.8441,0 -10.5661,-2.24173 -14.152,-6.75355 -3.58701,-4.49764 -5.38111,-12.5268 -5.38111,-24.0732 0,-11.3362 1.97599,-19.4917 5.91378,-24.4654 3.2504,-4.10551 7.79056,-6.16418 13.6193,-6.16418zm-36.7394 60.4335l-11.5323 0 0 -43.48c-4.21772,3.95197 -9.17835,6.86575 -14.8961,8.74371l0 -10.4669c3,-0.981497 6.27874,-2.84528 9.81024,-5.59134 3.53032,-2.76024 5.95394,-5.9693 7.25788,-9.63898l9.36024 0 0 60.4335zm-56.7768 -50.8642c-1.3878,0 -2.63386,0.447638 -3.72638,1.3311 -1.0937,0.896457 -1.94882,2.49449 -2.55,4.79174 -0.785434,2.98583 -1.19173,8.00197 -1.19173,15.0638 0,7.06182 0.36378,11.9102 1.06417,14.5441 0.715749,2.64921 1.61221,4.40079 2.69055,5.28307 1.09252,0.868111 2.32559,1.31693 3.71339,1.31693 1.40079,0 2.64803,-0.448819 3.74055,-1.34528 1.0937,-0.883465 1.94764,-2.48032 2.55118,-4.77756 0.784253,-2.95748 1.19055,-7.95945 1.19055,-15.0213 0,-7.06182 -0.36378,-11.9102 -1.06417,-14.5595 -0.714567,-2.63386 -1.61221,-4.39961 -2.69173,-5.29607 -1.09252,-0.883465 -2.32559,-1.3311 -3.72638,-1.3311zm0 -9.5693c5.8441,0 10.3973,2.08701 13.676,6.24922 3.90827,4.91811 5.87126,13.0866 5.87126,24.5067 0,11.3776 -1.97717,19.5603 -5.91378,24.5492 -3.2504,4.10551 -7.78938,6.15119 -13.6335,6.15119 -5.84292,0 -10.565,-2.24173 -14.152,-6.75355 -3.58701,-4.49764 -5.38111,-12.5268 -5.38111,-24.0732 0,-11.3362 1.97599,-19.4917 5.9126,-24.4654 3.25158,-4.10551 7.79174,-6.16418 13.6205,-6.16418zm-36.7394 60.4335l-11.5323 0 0 -43.48c-4.21772,3.95197 -9.17835,6.86575 -14.8949,8.74371l0 -10.4669c2.99882,-0.981497 6.27756,-2.84528 9.80788,-5.59134 3.5315,-2.76024 5.9563,-5.9693 7.25906,-9.63898l9.36024 0 0 60.4335zm-56.7768 -50.8642c-1.3878,0 -2.63386,0.447638 -3.72638,1.3311 -1.0937,0.896457 -1.94882,2.49449 -2.55118,4.79174 -0.784253,2.98583 -1.19055,8.00197 -1.19055,15.0638 0,7.06182 0.364961,11.9102 1.06536,14.5441 0.714567,2.64921 1.61102,4.40079 2.68937,5.28307 1.0937,0.868111 2.32559,1.31693 3.71339,1.31693 1.40197,0 2.64921,-0.448819 3.74055,-1.34528 1.0937,-0.883465 1.94882,-2.48032 2.55118,-4.77756 0.784253,-2.95748 1.19173,-7.95945 1.19173,-15.0213 0,-7.06182 -0.364961,-11.9102 -1.06654,-14.5595 -0.714567,-2.63386 -1.61102,-4.39961 -2.68937,-5.29607 -1.0937,-0.883465 -2.32559,-1.3311 -3.72756,-1.3311zm0 -9.5693c5.84292,0 10.3973,2.08701 13.676,6.24922 3.90945,4.91811 5.87126,13.0866 5.87126,24.5067 0,11.3776 -1.97599,19.5603 -5.91378,24.5492 -3.2504,4.10551 -7.79056,6.15119 -13.6335,6.15119 -5.8441,0 -10.565,-2.24173 -14.152,-6.75355 -3.58701,-4.49764 -5.38111,-12.5268 -5.38111,-24.0732 0,-11.3362 1.97599,-19.4917 5.91378,-24.4654 3.2504,-4.10551 7.79056,-6.16418 13.6193,-6.16418zm-36.7382 60.4335l-11.5335 0 0 -43.48c-4.21772,3.95197 -9.17717,6.86575 -14.8949,8.74371l0 -10.4669c2.99882,-0.981497 6.27874,-2.84528 9.80788,-5.59134 3.53268,-2.76024 5.9563,-5.9693 7.25906,-9.63898l9.36142 0 0 60.4335zm-56.778 -50.8642c-1.38662,0 -2.63386,0.447638 -3.72756,1.3311 -1.09252,0.896457 -1.94646,2.49449 -2.54882,4.79174 -0.785434,2.98583 -1.19173,8.00197 -1.19173,15.0638 0,7.06182 0.364961,11.9102 1.06417,14.5441 0.715749,2.64921 1.61339,4.40079 2.69055,5.28307 1.0937,0.868111 2.32677,1.31693 3.71339,1.31693 1.40197,0 2.64921,-0.448819 3.74055,-1.34528 1.0937,-0.883465 1.94882,-2.48032 2.55236,-4.77756 0.783071,-2.95748 1.19055,-7.95945 1.19055,-15.0213 0,-7.06182 -0.364961,-11.9102 -1.06536,-14.5595 -0.714567,-2.63386 -1.61102,-4.39961 -2.69055,-5.29607 -1.0937,-0.883465 -2.32559,-1.3311 -3.72756,-1.3311zm0 -9.5693c5.84292,0 10.3984,2.08701 13.676,6.24922 3.90945,4.91811 5.87126,13.0866 5.87126,24.5067 0,11.3776 -1.97599,19.5603 -5.9126,24.5492 -3.2504,4.10551 -7.79174,6.15119 -13.6347,6.15119 -5.84292,0 -10.565,-2.24173 -14.1508,-6.75355 -3.58819,-4.49764 -5.38229,-12.5268 -5.38229,-24.0732 0,-11.3362 1.97599,-19.4917 5.91378,-24.4654 3.25158,-4.10551 7.79056,-6.16418 13.6193,-6.16418zm-36.7394 60.4335l-11.5311 0 0 -43.48c-4.21772,3.95197 -9.17835,6.86575 -14.8961,8.74371l0 -10.4669c3,-0.981497 6.27756,-2.84528 9.80906,-5.59134 3.5315,-2.76024 5.95512,-5.9693 7.25788,-9.63898l9.36024 0 0 60.4335zm-56.7768 -50.8642c-1.3878,0 -2.63268,0.447638 -3.72756,1.3311 -1.09252,0.896457 -1.94646,2.49449 -2.55,4.79174 -0.784253,2.98583 -1.19055,8.00197 -1.19055,15.0638 0,7.06182 0.364961,11.9102 1.06536,14.5441 0.714567,2.64921 1.61102,4.40079 2.68937,5.28307 1.0937,0.868111 2.32559,1.31693 3.71339,1.31693 1.40197,0 2.64921,-0.448819 3.74174,-1.34528 1.09252,-0.883465 1.94646,-2.48032 2.55,-4.77756 0.785434,-2.95748 1.19173,-7.95945 1.19173,-15.0213 0,-7.06182 -0.36378,-11.9102 -1.06654,-14.5595 -0.713386,-2.63386 -1.60984,-4.39961 -2.68937,-5.29607 -1.0937,-0.883465 -2.32559,-1.3311 -3.72756,-1.3311zm0 -9.5693c5.8441,0 10.3973,2.08701 13.6772,6.24922 3.90827,4.91811 5.87008,13.0866 5.87008,24.5067 0,11.3776 -1.97599,19.5603 -5.91378,24.5492 -3.24922,4.10551 -7.78938,6.15119 -13.6335,6.15119 -5.84292,0 -10.565,-2.24173 -14.152,-6.75355 -3.58701,-4.49764 -5.38111,-12.5268 -5.38111,-24.0732 0,-11.3362 1.97599,-19.4917 5.91378,-24.4654 3.25158,-4.10551 7.79056,-6.16418 13.6193,-6.16418zm-36.7382 60.4335l-11.5323 0 0 -43.48c-4.21772,3.95197 -9.17835,6.86575 -14.8961,8.74371l0 -10.4669c3,-0.981497 6.27874,-2.84528 9.80906,-5.59134 3.5315,-2.76024 5.95512,-5.9693 7.25906,-9.63898l9.36024 0 0 60.4335zm-56.778 -50.8642c-1.38662,0 -2.63386,0.447638 -3.72638,1.3311 -1.0937,0.896457 -1.94764,2.49449 -2.55,4.79174 -0.785434,2.98583 -1.19055,8.00197 -1.19055,15.0638 0,7.06182 0.36378,11.9102 1.06417,14.5441 0.715749,2.64921 1.61102,4.40079 2.69055,5.28307 1.09252,0.868111 2.32559,1.31693 3.71221,1.31693 1.40197,0 2.64921,-0.448819 3.74174,-1.34528 1.09252,-0.883465 1.94646,-2.48032 2.55118,-4.77756 0.783071,-2.95748 1.19055,-7.95945 1.19055,-15.0213 0,-7.06182 -0.364961,-11.9102 -1.06536,-14.5595 -0.713386,-2.63386 -1.61102,-4.39961 -2.69055,-5.29607 -1.09252,-0.883465 -2.32559,-1.3311 -3.72756,-1.3311zm561.096 95.8005c-1.38662,0 -2.63268,0.45 -3.72638,1.33228 -1.0937,0.896457 -1.94764,2.49449 -2.55,4.79174 -0.785434,2.98465 -1.19055,8.00079 -1.19055,15.0638 0,7.06182 0.36378,11.9091 1.06417,14.5441 0.715749,2.64803 1.61102,4.39961 2.69055,5.28307 1.09252,0.86693 2.32559,1.31693 3.71221,1.31693 1.40197,0 2.64921,-0.45 3.74174,-1.34528 1.0937,-0.882284 1.94646,-2.48032 2.55118,-4.77874 1.61575,-6.09449 1.73032,-23.5134 0.125197,-29.5796 -0.713386,-2.63386 -1.61102,-4.39961 -2.69055,-5.29607 -1.09252,-0.882284 -2.32559,-1.33228 -3.72756,-1.33228zm0 -9.5693c5.8441,0 10.3973,2.08819 13.6772,6.24922 3.90827,4.91811 5.87126,13.0878 5.87126,24.5079 0,11.3776 -1.97717,19.5603 -5.91378,24.5492 -3.2504,4.10433 -7.79056,6.15119 -13.6347,6.15119 -5.84292,0 -10.565,-2.24173 -14.152,-6.75355 -3.58701,-4.49764 -5.38111,-12.528 -5.38111,-24.0732 0,-11.3362 1.97717,-19.4917 5.91378,-24.4654 3.25158,-4.10551 7.79056,-6.16536 13.6193,-6.16536zm-36.7382 60.4347l-11.5311 0 0 -43.48c-4.2189,3.95197 -9.17953,6.86575 -14.8973,8.74371l0 -10.4669c3,-0.981497 6.27874,-2.84528 9.80906,-5.59134 3.53268,-2.76024 5.95512,-5.96811 7.25906,-9.64016l9.36024 0 0 60.4347zm-56.7768 -50.8654c-1.3878,0 -2.63386,0.45 -3.72756,1.33228 -1.09252,0.896457 -1.94764,2.49449 -2.55,4.79174 -0.785434,2.98465 -1.19055,8.00079 -1.19055,15.0638 0,7.06182 0.364961,11.9091 1.06417,14.5441 0.714567,2.64803 1.61221,4.39961 2.69055,5.28307 1.0937,0.86693 2.32559,1.31693 3.71339,1.31693 1.40079,0 2.64803,-0.45 3.74055,-1.34528 1.09252,-0.882284 1.94764,-2.48032 2.55118,-4.77874 0.783071,-2.9563 1.19055,-7.95827 1.19055,-15.0201 0,-7.063 -0.36378,-11.9102 -1.06536,-14.5595 -0.714567,-2.63386 -1.60984,-4.39961 -2.68937,-5.29607 -1.0937,-0.882284 -2.32677,-1.33228 -3.72756,-1.33228zm0 -9.5693c5.84292,0 10.3973,2.08819 13.6748,6.24922 3.90945,4.91811 5.87126,13.0878 5.87126,24.5079 0,11.3776 -1.9748,19.5603 -5.9126,24.5492 -3.2504,4.10433 -7.79056,6.15119 -13.6335,6.15119 -5.8441,0 -10.5661,-2.24173 -14.152,-6.75355 -3.58701,-4.49764 -5.38111,-12.528 -5.38111,-24.0732 0,-11.3362 1.97599,-19.4917 5.91378,-24.4654 3.2504,-4.10551 7.79056,-6.16536 13.6193,-6.16536zm-36.7394 60.4347l-11.5323 0 0 -43.48c-4.21772,3.95197 -9.17835,6.86575 -14.8961,8.74371l0 -10.4669c3,-0.981497 6.27874,-2.84528 9.81024,-5.59134 3.53032,-2.76024 5.95394,-5.96811 7.25788,-9.64016l9.36024 0 0 60.4347zm-56.7768 -50.8654c-1.3878,0 -2.63386,0.45 -3.72638,1.33228 -1.0937,0.896457 -1.94882,2.49449 -2.55,4.79174 -0.785434,2.98465 -1.19173,8.00079 -1.19173,15.0638 0,7.06182 0.36378,11.9091 1.06417,14.5441 0.715749,2.64803 1.61221,4.39961 2.69055,5.28307 1.09252,0.86693 2.32559,1.31693 3.71339,1.31693 1.40079,0 2.64803,-0.45 3.74055,-1.34528 1.0937,-0.882284 1.94764,-2.48032 2.55118,-4.77874 0.784253,-2.9563 1.19055,-7.95827 1.19055,-15.0201 0,-7.063 -0.36378,-11.9102 -1.06417,-14.5595 -0.714567,-2.63386 -1.61221,-4.39961 -2.69173,-5.29607 -1.09252,-0.882284 -2.32559,-1.33228 -3.72638,-1.33228zm0 -9.5693c5.8441,0 10.3973,2.08819 13.676,6.24922 3.90827,4.91811 5.87126,13.0878 5.87126,24.5079 0,11.3776 -1.97717,19.5603 -5.91378,24.5492 -3.2504,4.10433 -7.78938,6.15119 -13.6335,6.15119 -5.84292,0 -10.565,-2.24173 -14.152,-6.75355 -3.58701,-4.49764 -5.38111,-12.528 -5.38111,-24.0732 0,-11.3362 1.97599,-19.4917 5.9126,-24.4654 3.25158,-4.10551 7.79174,-6.16536 13.6205,-6.16536zm-36.7394 60.4347l-11.5323 0 0 -43.48c-4.21772,3.95197 -9.17835,6.86575 -14.8949,8.74371l0 -10.4669c2.99882,-0.981497 6.27756,-2.84528 9.80788,-5.59134 3.5315,-2.76024 5.9563,-5.96811 7.25906,-9.64016l9.36024 0 0 60.4347zm-56.7768 -50.8654c-1.3878,0 -2.63386,0.45 -3.72638,1.33228 -1.0937,0.896457 -1.94882,2.49449 -2.55118,4.79174 -0.784253,2.98465 -1.19055,8.00079 -1.19055,15.0638 0,7.06182 0.364961,11.9091 1.06536,14.5441 0.714567,2.64803 1.61102,4.39961 2.68937,5.28307 1.0937,0.86693 2.32559,1.31693 3.71339,1.31693 1.40197,0 2.64921,-0.45 3.74055,-1.34528 1.0937,-0.882284 1.94882,-2.48032 2.55118,-4.77874 0.784253,-2.9563 1.19173,-7.95827 1.19173,-15.0201 0,-7.063 -0.364961,-11.9102 -1.06654,-14.5595 -0.714567,-2.63386 -1.61102,-4.39961 -2.68937,-5.29607 -1.0937,-0.882284 -2.32559,-1.33228 -3.72756,-1.33228zm0 -9.5693c5.84292,0 10.3973,2.08819 13.676,6.24922 3.90945,4.91811 5.87126,13.0878 5.87126,24.5079 0,11.3776 -1.97599,19.5603 -5.91378,24.5492 -3.2504,4.10433 -7.79056,6.15119 -13.6335,6.15119 -5.8441,0 -10.565,-2.24173 -14.152,-6.75355 -3.58701,-4.49764 -5.38111,-12.528 -5.38111,-24.0732 0,-11.3362 1.97599,-19.4917 5.91378,-24.4654 3.2504,-4.10551 7.79056,-6.16536 13.6193,-6.16536zm-36.7382 60.4347l-11.5335 0 0 -43.48c-4.21772,3.95197 -9.17717,6.86575 -14.8949,8.74371l0 -10.4669c2.99882,-0.981497 6.27874,-2.84528 9.80788,-5.59134 3.53268,-2.76024 5.9563,-5.96811 7.25906,-9.64016l9.36142 0 0 60.4347zm-56.778 -50.8654c-1.38662,0 -2.63386,0.45 -3.72756,1.33228 -1.09252,0.896457 -1.94646,2.49449 -2.54882,4.79174 -0.785434,2.98465 -1.19173,8.00079 -1.19173,15.0638 0,7.06182 0.364961,11.9091 1.06417,14.5441 0.715749,2.64803 1.61339,4.39961 2.69055,5.28307 1.0937,0.86693 2.32677,1.31693 3.71339,1.31693 1.40197,0 2.64921,-0.45 3.74055,-1.34528 1.0937,-0.882284 1.94882,-2.48032 2.55236,-4.77874 0.783071,-2.9563 1.19055,-7.95827 1.19055,-15.0201 0,-7.063 -0.364961,-11.9102 -1.06536,-14.5595 -0.714567,-2.63386 -1.61102,-4.39961 -2.69055,-5.29607 -1.0937,-0.882284 -2.32559,-1.33228 -3.72756,-1.33228zm0 -9.5693c5.84292,0 10.3984,2.08819 13.676,6.24922 3.90945,4.91811 5.87126,13.0878 5.87126,24.5079 0,11.3776 -1.97599,19.5603 -5.9126,24.5492 -3.2504,4.10433 -7.79174,6.15119 -13.6347,6.15119 -5.84292,0 -10.565,-2.24173 -14.1508,-6.75355 -3.58819,-4.49764 -5.38229,-12.528 -5.38229,-24.0732 0,-11.3362 1.97599,-19.4917 5.91378,-24.4654 3.25158,-4.10551 7.79056,-6.16536 13.6193,-6.16536zm-36.7394 60.4347l-11.5311 0 0 -43.48c-4.21772,3.95197 -9.17835,6.86575 -14.8961,8.74371l0 -10.4669c3,-0.981497 6.27756,-2.84528 9.80906,-5.59134 3.5315,-2.76024 5.95512,-5.96811 7.25788,-9.64016l9.36024 0 0 60.4347zm-56.7768 -50.8654c-1.3878,0 -2.63268,0.45 -3.72756,1.33228 -1.09252,0.896457 -1.94646,2.49449 -2.55,4.79174 -0.784253,2.98465 -1.19055,8.00079 -1.19055,15.0638 0,7.06182 0.364961,11.9091 1.06536,14.5441 0.714567,2.64803 1.61102,4.39961 2.68937,5.28307 1.0937,0.86693 2.32559,1.31693 3.71339,1.31693 1.40197,0 2.64921,-0.45 3.74174,-1.34528 1.09252,-0.882284 1.94646,-2.48032 2.55,-4.77874 0.785434,-2.9563 1.19173,-7.95827 1.19173,-15.0201 0,-7.063 -0.36378,-11.9102 -1.06654,-14.5595 -0.713386,-2.63386 -1.60984,-4.39961 -2.68937,-5.29607 -1.0937,-0.882284 -2.32559,-1.33228 -3.72756,-1.33228zm0 -9.5693c5.8441,0 10.3973,2.08819 13.6772,6.24922 3.90827,4.91811 5.87008,13.0878 5.87008,24.5079 0,11.3776 -1.97599,19.5603 -5.91378,24.5492 -3.24922,4.10433 -7.78938,6.15119 -13.6335,6.15119 -5.84292,0 -10.565,-2.24173 -14.152,-6.75355 -3.58701,-4.49764 -5.38111,-12.528 -5.38111,-24.0732 0,-11.3362 1.97599,-19.4917 5.91378,-24.4654 3.25158,-4.10551 7.79056,-6.16536 13.6193,-6.16536zm-36.7382 60.4347l-11.5323 0 0 -43.48c-4.21772,3.95197 -9.17835,6.86575 -14.8961,8.74371l0 -10.4669c3,-0.981497 6.27874,-2.84528 9.80906,-5.59134 3.5315,-2.76024 5.95512,-5.96811 7.25906,-9.64016l9.36024 0 0 60.4347zm-56.778 -50.8654c-1.38662,0 -2.63386,0.45 -3.72638,1.33228 -1.0937,0.896457 -1.94764,2.49449 -2.55,4.79174 -0.785434,2.98465 -1.19055,8.00079 -1.19055,15.0638 0,7.06182 0.36378,11.9091 1.06417,14.5441 0.715749,2.64803 1.61102,4.39961 2.69055,5.28307 1.09252,0.86693 2.32559,1.31693 3.71221,1.31693 1.40197,0 2.64921,-0.45 3.74174,-1.34528 1.09252,-0.882284 1.94646,-2.48032 2.55118,-4.77874 0.783071,-2.9563 1.19055,-7.95827 1.19055,-15.0201 0,-7.063 -0.364961,-11.9102 -1.06536,-14.5595 -0.713386,-2.63386 -1.61102,-4.39961 -2.69055,-5.29607 -1.09252,-0.882284 -2.32559,-1.33228 -3.72756,-1.33228zm0 -9.5693c5.8441,0 10.3973,2.08819 13.6772,6.24922 3.90827,4.91811 5.87126,13.0878 5.87126,24.5079 0,11.3776 -1.97717,19.5603 -5.91497,24.5492 -3.24922,4.10433 -7.78938,6.15119 -13.6335,6.15119 -5.84292,0 -10.565,-2.24173 -14.152,-6.75355 -3.58701,-4.49764 -5.38111,-12.528 -5.38111,-24.0732 0,-11.3362 1.97717,-19.4917 5.91378,-24.4654 3.25158,-4.10551 7.79056,-6.16536 13.6193,-6.16536zm561.096 105.371c-1.38662,0 -2.63268,0.448819 -3.72638,1.33228 -1.0937,0.896457 -1.94764,2.49449 -2.55,4.79174 -0.785434,2.98465 -1.19055,8.00079 -1.19055,15.0626 0,7.063 0.36378,11.9102 1.06417,14.5453 0.715749,2.64803 1.61102,4.40079 2.69055,5.28307 1.09252,0.868111 2.32559,1.31693 3.71221,1.31693 1.40197,0 2.64921,-0.448819 3.74174,-1.34528 1.0937,-0.883465 1.94646,-2.48032 2.55118,-4.77874 1.61575,-6.09449 1.73032,-23.5146 0.125197,-29.5796 -0.713386,-2.63386 -1.61102,-4.39961 -2.69055,-5.29607 -1.09252,-0.883465 -2.32559,-1.33228 -3.72756,-1.33228zm0 -9.5693c5.8441,0 10.3973,2.08819 13.6772,6.2504 3.90827,4.91693 5.87126,13.0866 5.87126,24.5055 0,11.3776 -1.97717,19.5614 -5.91378,24.5492 -3.2504,4.10551 -7.79056,6.15237 -13.6347,6.15237 -5.84292,0 -10.565,-2.24173 -14.152,-6.75355 -3.58701,-4.49764 -5.38111,-12.5268 -5.38111,-24.0732 0,-11.3362 1.97717,-19.4917 5.91378,-24.4654 3.25158,-4.1067 7.79056,-6.16536 13.6193,-6.16536zm-36.7382 60.4347l-11.5311 0 0 -43.48c-4.2189,3.95079 -9.17953,6.86575 -14.8973,8.74253l0 -10.4669c3,-0.980316 6.27874,-2.8441 9.80906,-5.59016 3.53268,-2.76024 5.95512,-5.9693 7.25906,-9.64016l9.36024 0 0 60.4347zm-56.7768 -50.8654c-1.3878,0 -2.63386,0.448819 -3.72756,1.33228 -1.09252,0.896457 -1.94764,2.49449 -2.55,4.79174 -0.785434,2.98465 -1.19055,8.00079 -1.19055,15.0626 0,7.063 0.364961,11.9102 1.06417,14.5453 0.714567,2.64803 1.61221,4.40079 2.69055,5.28307 1.0937,0.868111 2.32559,1.31693 3.71339,1.31693 1.40079,0 2.64803,-0.448819 3.74055,-1.34528 1.09252,-0.883465 1.94764,-2.48032 2.55118,-4.77874 0.783071,-2.9563 1.19055,-7.95827 1.19055,-15.0213 0,-7.06182 -0.36378,-11.9091 -1.06536,-14.5583 -0.714567,-2.63386 -1.60984,-4.39961 -2.68937,-5.29607 -1.0937,-0.883465 -2.32677,-1.33228 -3.72756,-1.33228zm0 -9.5693c5.84292,0 10.3973,2.08819 13.6748,6.2504 3.90945,4.91693 5.87126,13.0866 5.87126,24.5055 0,11.3776 -1.9748,19.5614 -5.9126,24.5492 -3.2504,4.10551 -7.79056,6.15237 -13.6335,6.15237 -5.8441,0 -10.5661,-2.24173 -14.152,-6.75355 -3.58701,-4.49764 -5.38111,-12.5268 -5.38111,-24.0732 0,-11.3362 1.97599,-19.4917 5.91378,-24.4654 3.2504,-4.1067 7.79056,-6.16536 13.6193,-6.16536zm-36.7394 60.4347l-11.5323 0 0 -43.48c-4.21772,3.95079 -9.17835,6.86575 -14.8961,8.74253l0 -10.4669c3,-0.980316 6.27874,-2.8441 9.81024,-5.59016 3.53032,-2.76024 5.95394,-5.9693 7.25788,-9.64016l9.36024 0 0 60.4347zm-56.7768 -50.8654c-1.3878,0 -2.63386,0.448819 -3.72638,1.33228 -1.0937,0.896457 -1.94882,2.49449 -2.55,4.79174 -0.785434,2.98465 -1.19173,8.00079 -1.19173,15.0626 0,7.063 0.36378,11.9102 1.06417,14.5453 0.715749,2.64803 1.61221,4.40079 2.69055,5.28307 1.09252,0.868111 2.32559,1.31693 3.71339,1.31693 1.40079,0 2.64803,-0.448819 3.74055,-1.34528 1.0937,-0.883465 1.94764,-2.48032 2.55118,-4.77874 0.784253,-2.9563 1.19055,-7.95827 1.19055,-15.0213 0,-7.06182 -0.36378,-11.9091 -1.06417,-14.5583 -0.714567,-2.63386 -1.61221,-4.39961 -2.69173,-5.29607 -1.09252,-0.883465 -2.32559,-1.33228 -3.72638,-1.33228zm0 -9.5693c5.8441,0 10.3973,2.08819 13.676,6.2504 3.90827,4.91693 5.87126,13.0866 5.87126,24.5055 0,11.3776 -1.97717,19.5614 -5.91378,24.5492 -3.2504,4.10551 -7.78938,6.15237 -13.6335,6.15237 -5.84292,0 -10.565,-2.24173 -14.152,-6.75355 -3.58701,-4.49764 -5.38111,-12.5268 -5.38111,-24.0732 0,-11.3362 1.97599,-19.4917 5.9126,-24.4654 3.25158,-4.1067 7.79174,-6.16536 13.6205,-6.16536zm-36.7394 60.4347l-11.5323 0 0 -43.48c-4.21772,3.95079 -9.17835,6.86575 -14.8949,8.74253l0 -10.4669c2.99882,-0.980316 6.27756,-2.8441 9.80788,-5.59016 3.5315,-2.76024 5.9563,-5.9693 7.25906,-9.64016l9.36024 0 0 60.4347zm-56.7768 -50.8654c-1.3878,0 -2.63386,0.448819 -3.72638,1.33228 -1.0937,0.896457 -1.94882,2.49449 -2.55118,4.79174 -0.784253,2.98465 -1.19055,8.00079 -1.19055,15.0626 0,7.063 0.364961,11.9102 1.06536,14.5453 0.714567,2.64803 1.61102,4.40079 2.68937,5.28307 1.0937,0.868111 2.32559,1.31693 3.71339,1.31693 1.40197,0 2.64921,-0.448819 3.74055,-1.34528 1.0937,-0.883465 1.94882,-2.48032 2.55118,-4.77874 0.784253,-2.9563 1.19173,-7.95827 1.19173,-15.0213 0,-7.06182 -0.364961,-11.9091 -1.06654,-14.5583 -0.714567,-2.63386 -1.61102,-4.39961 -2.68937,-5.29607 -1.0937,-0.883465 -2.32559,-1.33228 -3.72756,-1.33228zm0 -9.5693c5.84292,0 10.3973,2.08819 13.676,6.2504 3.90945,4.91693 5.87126,13.0866 5.87126,24.5055 0,11.3776 -1.97599,19.5614 -5.91378,24.5492 -3.2504,4.10551 -7.79056,6.15237 -13.6335,6.15237 -5.8441,0 -10.565,-2.24173 -14.152,-6.75355 -3.58701,-4.49764 -5.38111,-12.5268 -5.38111,-24.0732 0,-11.3362 1.97599,-19.4917 5.91378,-24.4654 3.2504,-4.1067 7.79056,-6.16536 13.6193,-6.16536zm-36.7382 60.4347l-11.5335 0 0 -43.48c-4.21772,3.95079 -9.17717,6.86575 -14.8949,8.74253l0 -10.4669c2.99882,-0.980316 6.27874,-2.8441 9.80788,-5.59016 3.53268,-2.76024 5.9563,-5.9693 7.25906,-9.64016l9.36142 0 0 60.4347zm-56.778 -50.8654c-1.38662,0 -2.63386,0.448819 -3.72756,1.33228 -1.09252,0.896457 -1.94646,2.49449 -2.54882,4.79174 -0.785434,2.98465 -1.19173,8.00079 -1.19173,15.0626 0,7.063 0.364961,11.9102 1.06417,14.5453 0.715749,2.64803 1.61339,4.40079 2.69055,5.28307 1.0937,0.868111 2.32677,1.31693 3.71339,1.31693 1.40197,0 2.64921,-0.448819 3.74055,-1.34528 1.0937,-0.883465 1.94882,-2.48032 2.55236,-4.77874 0.783071,-2.9563 1.19055,-7.95827 1.19055,-15.0213 0,-7.06182 -0.364961,-11.9091 -1.06536,-14.5583 -0.714567,-2.63386 -1.61102,-4.39961 -2.69055,-5.29607 -1.0937,-0.883465 -2.32559,-1.33228 -3.72756,-1.33228zm0 -9.5693c5.84292,0 10.3984,2.08819 13.676,6.2504 3.90945,4.91693 5.87126,13.0866 5.87126,24.5055 0,11.3776 -1.97599,19.5614 -5.9126,24.5492 -3.2504,4.10551 -7.79174,6.15237 -13.6347,6.15237 -5.84292,0 -10.565,-2.24173 -14.1508,-6.75355 -3.58819,-4.49764 -5.38229,-12.5268 -5.38229,-24.0732 0,-11.3362 1.97599,-19.4917 5.91378,-24.4654 3.25158,-4.1067 7.79056,-6.16536 13.6193,-6.16536zm-36.7394 60.4347l-11.5311 0 0 -43.48c-4.21772,3.95079 -9.17835,6.86575 -14.8961,8.74253l0 -10.4669c3,-0.980316 6.27756,-2.8441 9.80906,-5.59016 3.5315,-2.76024 5.95512,-5.9693 7.25788,-9.64016l9.36024 0 0 60.4347zm-56.7768 -50.8654c-1.3878,0 -2.63268,0.448819 -3.72756,1.33228 -1.09252,0.896457 -1.94646,2.49449 -2.55,4.79174 -0.784253,2.98465 -1.19055,8.00079 -1.19055,15.0626 0,7.063 0.364961,11.9102 1.06536,14.5453 0.714567,2.64803 1.61102,4.40079 2.68937,5.28307 1.0937,0.868111 2.32559,1.31693 3.71339,1.31693 1.40197,0 2.64921,-0.448819 3.74174,-1.34528 1.09252,-0.883465 1.94646,-2.48032 2.55,-4.77874 0.785434,-2.9563 1.19173,-7.95827 1.19173,-15.0213 0,-7.06182 -0.36378,-11.9091 -1.06654,-14.5583 -0.713386,-2.63386 -1.60984,-4.39961 -2.68937,-5.29607 -1.0937,-0.883465 -2.32559,-1.33228 -3.72756,-1.33228zm0 -9.5693c5.8441,0 10.3973,2.08819 13.6772,6.2504 3.90827,4.91693 5.87008,13.0866 5.87008,24.5055 0,11.3776 -1.97599,19.5614 -5.91378,24.5492 -3.24922,4.10551 -7.78938,6.15237 -13.6335,6.15237 -5.84292,0 -10.565,-2.24173 -14.152,-6.75355 -3.58701,-4.49764 -5.38111,-12.5268 -5.38111,-24.0732 0,-11.3362 1.97599,-19.4917 5.91378,-24.4654 3.25158,-4.1067 7.79056,-6.16536 13.6193,-6.16536zm-36.7382 60.4347l-11.5323 0 0 -43.48c-4.21772,3.95079 -9.17835,6.86575 -14.8961,8.74253l0 -10.4669c3,-0.980316 6.27874,-2.8441 9.80906,-5.59016 3.5315,-2.76024 5.95512,-5.9693 7.25906,-9.64016l9.36024 0 0 60.4347zm-56.778 -50.8654c-1.38662,0 -2.63386,0.448819 -3.72638,1.33228 -1.0937,0.896457 -1.94764,2.49449 -2.55,4.79174 -0.785434,2.98465 -1.19055,8.00079 -1.19055,15.0626 0,7.063 0.36378,11.9102 1.06417,14.5453 0.715749,2.64803 1.61102,4.40079 2.69055,5.28307 1.09252,0.868111 2.32559,1.31693 3.71221,1.31693 1.40197,0 2.64921,-0.448819 3.74174,-1.34528 1.09252,-0.883465 1.94646,-2.48032 2.55118,-4.77874 0.783071,-2.9563 1.19055,-7.95827 1.19055,-15.0213 0,-7.06182 -0.364961,-11.9091 -1.06536,-14.5583 -0.713386,-2.63386 -1.61102,-4.39961 -2.69055,-5.29607 -1.09252,-0.883465 -2.32559,-1.33228 -3.72756,-1.33228zm0 -9.5693c5.8441,0 10.3973,2.08819 13.6772,6.2504 3.90827,4.91693 5.87126,13.0866 5.87126,24.5055 0,11.3776 -1.97717,19.5614 -5.91497,24.5492 -3.24922,4.10551 -7.78938,6.15237 -13.6335,6.15237 -5.84292,0 -10.565,-2.24173 -14.152,-6.75355 -3.58701,-4.49764 -5.38111,-12.5268 -5.38111,-24.0732 0,-11.3362 1.97717,-19.4917 5.91378,-24.4654 3.25158,-4.1067 7.79056,-6.16536 13.6193,-6.16536zm561.096 105.371c-1.38662,0 -2.63268,0.448819 -3.72638,1.33228 -1.0937,0.896457 -1.94764,2.49449 -2.55,4.79174 -0.785434,2.98465 -1.19055,8.00079 -1.19055,15.0626 0,7.06182 0.36378,11.9102 1.06417,14.5453 0.715749,2.64803 1.61102,4.39961 2.69055,5.28307 1.09252,0.86693 2.32559,1.31575 3.71221,1.31575 1.40197,0 2.64921,-0.448819 3.74174,-1.3441 1.0937,-0.883465 1.94646,-2.48032 2.55118,-4.77874 1.61575,-6.09449 1.73032,-23.5146 0.125197,-29.5796 -0.713386,-2.63504 -1.61102,-4.39961 -2.69055,-5.29607 -1.09252,-0.883465 -2.32559,-1.33228 -3.72756,-1.33228zm0 -9.5693c5.8441,0 10.3973,2.08701 13.6772,6.24922 3.90827,4.91811 5.87126,13.0878 5.87126,24.5067 0,11.3776 -1.97717,19.5614 -5.91378,24.5492 -3.2504,4.10551 -7.79056,6.15237 -13.6347,6.15237 -5.84292,0 -10.565,-2.24173 -14.152,-6.75473 -3.58701,-4.49764 -5.38111,-12.5268 -5.38111,-24.0721 0,-11.3362 1.97717,-19.4917 5.91378,-24.4654 3.25158,-4.10551 7.79056,-6.16536 13.6193,-6.16536zm-36.7382 60.4347l-11.5311 0 0 -43.48c-4.2189,3.95079 -9.17953,6.86575 -14.8973,8.74253l0 -10.4658c3,-0.981497 6.27874,-2.84528 9.80906,-5.59134 3.53268,-2.76142 5.95512,-5.9693 7.25906,-9.64016l9.36024 0 0 60.4347zm-56.7768 -50.8654c-1.3878,0 -2.63386,0.448819 -3.72756,1.33228 -1.09252,0.896457 -1.94764,2.49449 -2.55,4.79174 -0.785434,2.98465 -1.19055,8.00079 -1.19055,15.0626 0,7.06182 0.364961,11.9102 1.06417,14.5453 0.714567,2.64803 1.61221,4.39961 2.69055,5.28307 1.0937,0.86693 2.32559,1.31575 3.71339,1.31575 1.40079,0 2.64803,-0.448819 3.74055,-1.3441 1.09252,-0.883465 1.94764,-2.48032 2.55118,-4.77874 0.783071,-2.95748 1.19055,-7.95945 1.19055,-15.0213 0,-7.06182 -0.36378,-11.9102 -1.06536,-14.5583 -0.714567,-2.63504 -1.60984,-4.39961 -2.68937,-5.29607 -1.0937,-0.883465 -2.32677,-1.33228 -3.72756,-1.33228zm0 -9.5693c5.84292,0 10.3973,2.08701 13.6748,6.24922 3.90945,4.91811 5.87126,13.0878 5.87126,24.5067 0,11.3776 -1.9748,19.5614 -5.9126,24.5492 -3.2504,4.10551 -7.79056,6.15237 -13.6335,6.15237 -5.8441,0 -10.5661,-2.24173 -14.152,-6.75473 -3.58701,-4.49764 -5.38111,-12.5268 -5.38111,-24.0721 0,-11.3362 1.97599,-19.4917 5.91378,-24.4654 3.2504,-4.10551 7.79056,-6.16536 13.6193,-6.16536zm-36.7394 60.4347l-11.5323 0 0 -43.48c-4.21772,3.95079 -9.17835,6.86575 -14.8961,8.74253l0 -10.4658c3,-0.981497 6.27874,-2.84528 9.81024,-5.59134 3.53032,-2.76142 5.95394,-5.9693 7.25788,-9.64016l9.36024 0 0 60.4347zm-56.7768 -50.8654c-1.3878,0 -2.63386,0.448819 -3.72638,1.33228 -1.0937,0.896457 -1.94882,2.49449 -2.55,4.79174 -0.785434,2.98465 -1.19173,8.00079 -1.19173,15.0626 0,7.06182 0.36378,11.9102 1.06417,14.5453 0.715749,2.64803 1.61221,4.39961 2.69055,5.28307 1.09252,0.86693 2.32559,1.31575 3.71339,1.31575 1.40079,0 2.64803,-0.448819 3.74055,-1.3441 1.0937,-0.883465 1.94764,-2.48032 2.55118,-4.77874 0.784253,-2.95748 1.19055,-7.95945 1.19055,-15.0213 0,-7.06182 -0.36378,-11.9102 -1.06417,-14.5583 -0.714567,-2.63504 -1.61221,-4.39961 -2.69173,-5.29607 -1.09252,-0.883465 -2.32559,-1.33228 -3.72638,-1.33228zm0 -9.5693c5.8441,0 10.3973,2.08701 13.676,6.24922 3.90827,4.91811 5.87126,13.0878 5.87126,24.5067 0,11.3776 -1.97717,19.5614 -5.91378,24.5492 -3.2504,4.10551 -7.78938,6.15237 -13.6335,6.15237 -5.84292,0 -10.565,-2.24173 -14.152,-6.75473 -3.58701,-4.49764 -5.38111,-12.5268 -5.38111,-24.0721 0,-11.3362 1.97599,-19.4917 5.9126,-24.4654 3.25158,-4.10551 7.79174,-6.16536 13.6205,-6.16536zm-36.7394 60.4347l-11.5323 0 0 -43.48c-4.21772,3.95079 -9.17835,6.86575 -14.8949,8.74253l0 -10.4658c2.99882,-0.981497 6.27756,-2.84528 9.80788,-5.59134 3.5315,-2.76142 5.9563,-5.9693 7.25906,-9.64016l9.36024 0 0 60.4347zm-56.7768 -50.8654c-1.3878,0 -2.63386,0.448819 -3.72638,1.33228 -1.0937,0.896457 -1.94882,2.49449 -2.55118,4.79174 -0.784253,2.98465 -1.19055,8.00079 -1.19055,15.0626 0,7.06182 0.364961,11.9102 1.06536,14.5453 0.714567,2.64803 1.61102,4.39961 2.68937,5.28307 1.0937,0.86693 2.32559,1.31575 3.71339,1.31575 1.40197,0 2.64921,-0.448819 3.74055,-1.3441 1.0937,-0.883465 1.94882,-2.48032 2.55118,-4.77874 0.784253,-2.95748 1.19173,-7.95945 1.19173,-15.0213 0,-7.06182 -0.364961,-11.9102 -1.06654,-14.5583 -0.714567,-2.63504 -1.61102,-4.39961 -2.68937,-5.29607 -1.0937,-0.883465 -2.32559,-1.33228 -3.72756,-1.33228zm0 -9.5693c5.84292,0 10.3973,2.08701 13.676,6.24922 3.90945,4.91811 5.87126,13.0878 5.87126,24.5067 0,11.3776 -1.97599,19.5614 -5.91378,24.5492 -3.2504,4.10551 -7.79056,6.15237 -13.6335,6.15237 -5.8441,0 -10.565,-2.24173 -14.152,-6.75473 -3.58701,-4.49764 -5.38111,-12.5268 -5.38111,-24.0721 0,-11.3362 1.97599,-19.4917 5.91378,-24.4654 3.2504,-4.10551 7.79056,-6.16536 13.6193,-6.16536zm-36.7382 60.4347l-11.5335 0 0 -43.48c-4.21772,3.95079 -9.17717,6.86575 -14.8949,8.74253l0 -10.4658c2.99882,-0.981497 6.27874,-2.84528 9.80788,-5.59134 3.53268,-2.76142 5.9563,-5.9693 7.25906,-9.64016l9.36142 0 0 60.4347zm-56.778 -50.8654c-1.38662,0 -2.63386,0.448819 -3.72756,1.33228 -1.09252,0.896457 -1.94646,2.49449 -2.54882,4.79174 -0.785434,2.98465 -1.19173,8.00079 -1.19173,15.0626 0,7.06182 0.364961,11.9102 1.06417,14.5453 0.715749,2.64803 1.61339,4.39961 2.69055,5.28307 1.0937,0.86693 2.32677,1.31575 3.71339,1.31575 1.40197,0 2.64921,-0.448819 3.74055,-1.3441 1.0937,-0.883465 1.94882,-2.48032 2.55236,-4.77874 0.783071,-2.95748 1.19055,-7.95945 1.19055,-15.0213 0,-7.06182 -0.364961,-11.9102 -1.06536,-14.5583 -0.714567,-2.63504 -1.61102,-4.39961 -2.69055,-5.29607 -1.0937,-0.883465 -2.32559,-1.33228 -3.72756,-1.33228zm0 -9.5693c5.84292,0 10.3984,2.08701 13.676,6.24922 3.90945,4.91811 5.87126,13.0878 5.87126,24.5067 0,11.3776 -1.97599,19.5614 -5.9126,24.5492 -3.2504,4.10551 -7.79174,6.15237 -13.6347,6.15237 -5.84292,0 -10.565,-2.24173 -14.1508,-6.75473 -3.58819,-4.49764 -5.38229,-12.5268 -5.38229,-24.0721 0,-11.3362 1.97599,-19.4917 5.91378,-24.4654 3.25158,-4.10551 7.79056,-6.16536 13.6193,-6.16536zm-36.7394 60.4347l-11.5311 0 0 -43.48c-4.21772,3.95079 -9.17835,6.86575 -14.8961,8.74253l0 -10.4658c3,-0.981497 6.27756,-2.84528 9.80906,-5.59134 3.5315,-2.76142 5.95512,-5.9693 7.25788,-9.64016l9.36024 0 0 60.4347zm-56.7768 -50.8654c-1.3878,0 -2.63268,0.448819 -3.72756,1.33228 -1.09252,0.896457 -1.94646,2.49449 -2.55,4.79174 -0.784253,2.98465 -1.19055,8.00079 -1.19055,15.0626 0,7.06182 0.364961,11.9102 1.06536,14.5453 0.714567,2.64803 1.61102,4.39961 2.68937,5.28307 1.0937,0.86693 2.32559,1.31575 3.71339,1.31575 1.40197,0 2.64921,-0.448819 3.74174,-1.3441 1.09252,-0.883465 1.94646,-2.48032 2.55,-4.77874 0.785434,-2.95748 1.19173,-7.95945 1.19173,-15.0213 0,-7.06182 -0.36378,-11.9102 -1.06654,-14.5583 -0.713386,-2.63504 -1.60984,-4.39961 -2.68937,-5.29607 -1.0937,-0.883465 -2.32559,-1.33228 -3.72756,-1.33228zm0 -9.5693c5.8441,0 10.3973,2.08701 13.6772,6.24922 3.90827,4.91811 5.87008,13.0878 5.87008,24.5067 0,11.3776 -1.97599,19.5614 -5.91378,24.5492 -3.24922,4.10551 -7.78938,6.15237 -13.6335,6.15237 -5.84292,0 -10.565,-2.24173 -14.152,-6.75473 -3.58701,-4.49764 -5.38111,-12.5268 -5.38111,-24.0721 0,-11.3362 1.97599,-19.4917 5.91378,-24.4654 3.25158,-4.10551 7.79056,-6.16536 13.6193,-6.16536zm-36.7382 60.4347l-11.5323 0 0 -43.48c-4.21772,3.95079 -9.17835,6.86575 -14.8961,8.74253l0 -10.4658c3,-0.981497 6.27874,-2.84528 9.80906,-5.59134 3.5315,-2.76142 5.95512,-5.9693 7.25906,-9.64016l9.36024 0 0 60.4347zm-56.778 -50.8654c-1.38662,0 -2.63386,0.448819 -3.72638,1.33228 -1.0937,0.896457 -1.94764,2.49449 -2.55,4.79174 -0.785434,2.98465 -1.19055,8.00079 -1.19055,15.0626 0,7.06182 0.36378,11.9102 1.06417,14.5453 0.715749,2.64803 1.61102,4.39961 2.69055,5.28307 1.09252,0.86693 2.32559,1.31575 3.71221,1.31575 1.40197,0 2.64921,-0.448819 3.74174,-1.3441 1.09252,-0.883465 1.94646,-2.48032 2.55118,-4.77874 0.783071,-2.95748 1.19055,-7.95945 1.19055,-15.0213 0,-7.06182 -0.364961,-11.9102 -1.06536,-14.5583 -0.713386,-2.63504 -1.61102,-4.39961 -2.69055,-5.29607 -1.09252,-0.883465 -2.32559,-1.33228 -3.72756,-1.33228zm0 -9.5693c5.8441,0 10.3973,2.08701 13.6772,6.24922 3.90827,4.91811 5.87126,13.0878 5.87126,24.5067 0,11.3776 -1.97717,19.5614 -5.91497,24.5492 -3.24922,4.10551 -7.78938,6.15237 -13.6335,6.15237 -5.84292,0 -10.565,-2.24173 -14.152,-6.75473 -3.58701,-4.49764 -5.38111,-12.5268 -5.38111,-24.0721 0,-11.3362 1.97717,-19.4917 5.91378,-24.4654 3.25158,-4.10551 7.79056,-6.16536 13.6193,-6.16536zm0 -287.404c5.8441,0 10.3973,2.08701 13.6772,6.24922 3.90827,4.91811 5.87126,13.0866 5.87126,24.5067 0,11.3776 -1.97717,19.5603 -5.91497,24.5492 -3.24922,4.10551 -7.78938,6.15119 -13.6335,6.15119 -5.84292,0 -10.565,-2.24173 -14.152,-6.75355 -3.58701,-4.49764 -5.38111,-12.5268 -5.38111,-24.0732 0,-11.3362 1.97717,-19.4917 5.91378,-24.4654 3.25158,-4.10551 7.79056,-6.16418 13.6193,-6.16418z"/>
 </g>
</svg>
